<svg id="Lager_1" data-name="Lager 1" xmlns="http://www.w3.org/2000/svg" viewBox="0 0 300 300"><defs><style>.cls-1{fill:#1d2731;}.cls-2{fill:#999;}</style></defs><title>mqtt</title><path class="cls-1" d="M102.35,132.76l6.58,20.52,6.57-20.52h9.36v29.5h-7.14v-6.89l.69-14.1-7.13,21h-4.7l-7.15-21,.69,14.12v6.89H93v-29.5Z"/><path class="cls-1" d="M154.4,148.12a17.56,17.56,0,0,1-1.36,7.14,12.52,12.52,0,0,1-3.75,4.89l4.76,3.77-4.39,3.73-6.35-5.11a13.2,13.2,0,0,1-1.78.12,12.77,12.77,0,0,1-6.68-1.74,11.76,11.76,0,0,1-4.55-5,17,17,0,0,1-1.7-7.46v-1.56a17.34,17.34,0,0,1,1.6-7.66,11.85,11.85,0,0,1,4.53-5.1,13.46,13.46,0,0,1,13.45,0,12,12,0,0,1,4.57,5.07,17.18,17.18,0,0,1,1.65,7.55Zm-7.24-1.24q0-4.4-1.47-6.68a5.05,5.05,0,0,0-8.43,0,12.51,12.51,0,0,0-1.44,6.59v1.36a12.71,12.71,0,0,0,1.44,6.67,4.7,4.7,0,0,0,4.27,2.32,4.62,4.62,0,0,0,4.16-2.29,12.38,12.38,0,0,0,1.47-6.58Z"/><path class="cls-1" d="M180.51,138.25h-8.85v24h-7.11v-24h-8.69v-5.49h24.65Z"/><path class="cls-1" d="M207,138.25h-8.85v24H191v-24h-8.69v-5.49H207Z"/><path class="cls-2" d="M150,270A120,120,0,1,1,270,150,120.13,120.13,0,0,1,150,270Zm0-229.41A109.41,109.41,0,1,0,259.41,150,109.53,109.53,0,0,0,150,40.59Z"/></svg>